<svg width="514" height="105" viewBox="0 0 514 105" fill="none" xmlns="http://www.w3.org/2000/svg">
<path d="M53.3994 12C83.2272 13.2934 106.771 28.5665 106.771 47.2197C106.771 65.8732 83.2274 81.147 53.3994 82.4404V67.6328C70.205 66.2809 83.165 57.6573 83.165 47.2197C83.1647 36.7824 70.2048 28.1594 53.3994 26.8076V12Z" fill="#FF6602"/>
<path d="M47.2402 105C20.8395 103.707 0.000366524 88.4335 0 69.7803C0 51.1268 20.8392 35.8531 47.2402 34.5596V49.3672C32.3656 50.7192 20.8945 59.3428 20.8945 69.7803C20.8949 80.2175 32.3658 88.8405 47.2402 90.1924V105Z" fill="#023264"/>
<path d="M72 47.5L54 59.1913V35.8087L72 47.5Z" fill="#FF6602"/>
<path d="M47 68V82L28 68H47Z" fill="#023264"/>
<path d="M53 90.5V105L72 90.5H53Z" fill="#FF6602"/>
<path d="M165.99 94.3561C166.04 95.3067 165.689 95.782 164.935 95.782C164.457 95.782 163.076 95.3947 160.789 94.6202C158.528 93.8456 157.134 93.3175 156.606 93.0359C151.355 95.9228 146.318 97.3663 141.494 97.3663C133.73 97.3663 127.361 93.74 122.387 86.4875C117.462 79.3406 115 70.3101 115 59.3961C115 48.2356 117.387 38.9763 122.16 31.6181C127.085 24.0135 133.479 20.2112 141.343 20.2112C145.162 20.2112 148.755 21.2322 152.121 23.2742C155.764 25.5274 158.629 28.696 160.714 32.78C161.141 33.6249 161.355 34.2234 161.355 34.5755C161.355 35.7021 160.224 38.237 157.963 42.1801C155.727 46.088 154.282 48.042 153.629 48.042C153.478 48.042 152.9 47.3202 151.895 45.8768C150.664 44.1517 149.408 42.8138 148.127 41.8632C146.217 40.4198 144.107 39.698 141.795 39.698C138.027 39.698 135.037 41.6696 132.826 45.6127C130.766 49.239 129.735 53.763 129.735 59.1848C129.735 64.9235 130.803 69.4651 132.939 72.8097C135.15 76.26 138.278 77.9851 142.323 77.9851C144.886 77.9851 147.75 77.0873 150.915 75.2918C150.84 74.13 150.614 71.1726 150.237 66.4198C149.91 62.7583 149.747 59.8009 149.747 57.5477C149.747 56.8788 149.91 56.4739 150.237 56.3331C150.363 56.2627 150.564 56.2275 150.84 56.2275C151.569 56.2275 152.662 56.3331 154.119 56.5443C155.601 56.7204 156.719 56.8084 157.473 56.8084C158.277 56.8084 159.483 56.738 161.091 56.5972C162.699 56.4211 163.905 56.3331 164.709 56.3331C165.337 56.3331 165.651 56.914 165.651 58.0758C165.651 59.7657 165.576 62.3182 165.425 65.7332C165.299 69.1483 165.236 71.7007 165.236 73.3907C165.236 77.9323 165.475 84.7271 165.952 93.7752L165.99 94.3561Z" fill="#023264"/>
<path d="M209.857 79.6222C209.857 81.1361 209.644 83.9174 209.217 87.9661C208.764 92.367 208.362 94.9898 208.011 95.8348C207.709 96.5037 207.295 96.8382 206.767 96.8382C206.541 96.8382 206.164 96.7854 205.636 96.6798C203.802 96.3277 198.451 96.1517 189.582 96.1517C187.647 96.1517 184.771 96.1341 180.952 96.0988C177.133 96.0636 174.269 96.046 172.359 96.046C171.53 96.046 171.115 95.5355 171.115 94.5146C171.115 90.5714 171.266 84.6567 171.568 76.7705C171.894 68.849 172.058 62.9167 172.058 58.9736C172.058 54.9601 171.907 47.4787 171.605 36.5295C171.53 33.7129 171.392 29.5058 171.191 23.9079L171.153 23.1686C171.103 22.3588 171.417 21.954 172.095 21.954C173.954 21.954 176.743 22.0244 180.462 22.1652C184.205 22.306 187.007 22.3764 188.866 22.3764C190.7 22.3764 193.464 22.306 197.157 22.1652C200.85 22.0244 203.614 21.954 205.448 21.954C206.754 21.954 207.508 22.6405 207.709 24.0135C207.835 24.8233 208.023 27.2877 208.274 31.4069C208.551 35.4909 208.689 37.9729 208.689 38.8531C208.689 39.5924 208.438 39.9621 207.935 39.9621C207.785 39.9621 207.521 39.9445 207.144 39.9093C200.461 39.1347 194.456 38.7475 189.13 38.7475C187.798 38.7475 186.982 39.1875 186.68 40.0677C186.554 40.4902 186.492 41.8456 186.492 44.1341C186.492 46.5281 186.743 48.1124 187.245 48.8869C187.672 49.5559 188.489 49.8903 189.695 49.8903C189.946 49.8903 190.436 49.8727 191.165 49.8375C191.893 49.7671 192.496 49.7319 192.974 49.7319C196.139 49.7319 199.343 49.6087 202.584 49.3622C202.86 49.327 203.551 49.239 204.657 49.0982C205.511 48.9573 206.189 48.8869 206.692 48.8869C207.295 48.8869 207.596 49.2918 207.596 50.1016C207.596 49.3622 207.37 52.0555 206.918 58.1814C206.717 60.998 206.616 63.8145 206.616 66.631C206.616 67.3351 206.252 67.6872 205.523 67.6872C205.523 67.6872 204.393 67.5112 202.132 67.1591C200.699 66.9479 197.433 66.8422 192.333 66.8422H188.338C187.308 66.8422 186.705 67.1943 186.529 67.8984C186.504 68.0745 186.492 69.1659 186.492 71.1726C186.492 73.8483 186.617 75.5735 186.868 76.348C187.296 77.6858 188.904 78.478 191.692 78.7244C191.642 78.7244 193.476 78.7244 197.195 78.7244C198.526 78.7244 200.498 78.566 203.111 78.2492C205.749 77.8971 207.722 77.7211 209.028 77.7211C209.581 77.7211 209.857 78.3548 209.857 79.6222Z" fill="#023264"/>
<path d="M267.254 59.0792C267.254 70.0636 264.754 79.2701 259.754 86.6987C254.654 94.2329 248.197 98 240.384 98C232.62 98 226.176 94.1977 221.05 86.5931C216.025 79.1645 213.513 69.9932 213.513 59.0792C213.513 48.13 216.025 38.9235 221.05 31.4597C226.176 23.8199 232.62 20 240.384 20C248.097 20 254.529 23.8199 259.679 31.4597C264.729 38.9939 267.254 48.2004 267.254 59.0792ZM252.971 58.9736C252.971 53.6926 251.828 49.2038 249.541 45.5071C247.155 41.6344 244.102 39.698 240.384 39.698C236.841 39.698 233.839 41.7048 231.376 45.7183C228.99 49.5911 227.796 54.0447 227.796 59.0792C227.796 64.4658 228.914 68.9546 231.15 72.5457C233.512 76.3128 236.59 78.1963 240.384 78.1963C243.926 78.1963 246.941 76.2072 249.428 72.2288C251.79 68.4265 252.971 64.0081 252.971 58.9736Z" fill="#023264"/>
<path d="M318.018 50.2072C318.018 58.7271 316.423 65.6276 313.232 70.9086C309.815 76.5064 305.104 79.3053 299.099 79.3053C298.094 79.3053 296.574 79.2349 294.539 79.0941C292.529 78.9181 291.022 78.8301 290.017 78.8301C288.937 78.8301 288.396 79.4814 288.396 80.784C288.396 82.4035 288.509 84.8152 288.736 88.019C288.962 91.2227 289.075 93.6168 289.075 95.2011C289.075 96.0108 288.811 96.4157 288.283 96.4157C286.751 96.4157 284.452 96.3453 281.387 96.2045C278.321 96.0988 276.023 96.046 274.49 96.046C273.761 96.046 273.397 95.5355 273.397 94.5146C273.397 90.6066 273.435 84.7448 273.51 76.9289C273.611 69.0779 273.661 63.1984 273.661 59.2905C273.661 48.2356 273.322 36.6175 272.643 24.436L272.606 23.6967C272.555 23.0278 272.932 22.6229 273.736 22.4821C275.696 22.13 280.017 21.954 286.7 21.954C290.645 21.954 294.426 22.0244 298.044 22.1652C303.999 22.4116 308.797 25.0345 312.44 30.0339C316.159 35.174 318.018 41.8984 318.018 50.2072ZM302.981 51.0521C302.981 42.849 300.129 38.7475 294.426 38.7475C290.406 38.7475 288.296 39.0643 288.095 39.698C287.919 40.1557 287.831 44.2221 287.831 51.8971C287.831 52.9885 287.856 54.608 287.906 56.7556C287.982 58.868 288.019 60.4699 288.019 61.5613C288.019 62.2654 290.281 62.6175 294.803 62.6175C300.255 62.6175 302.981 58.7624 302.981 51.0521Z" fill="#023264"/>
<path d="M368.141 95.5179C368.141 95.7644 367.89 95.9404 367.388 96.046C366.433 96.2573 364.033 96.3629 360.189 96.3629C356.898 96.3629 354.662 96.2573 353.481 96.046C352.928 95.9404 352.614 95.8524 352.539 95.782C352.388 95.6764 352.212 95.3243 352.011 94.7258C351.635 93.3527 351.082 91.3108 350.353 88.5999C349.373 85.0792 347.841 79.8863 345.755 73.021C345.303 71.6479 344.261 70.891 342.627 70.7502C343.381 70.8206 342.087 70.8558 338.746 70.8558C338.369 70.8558 338.18 71.7536 338.18 73.5491C338.18 75.9431 338.331 79.5166 338.633 84.2695C338.959 89.0223 339.123 92.5958 339.123 94.9898C339.123 95.5884 339.01 95.9404 338.783 96.046C338.432 96.0812 338.08 96.1164 337.728 96.1517C336.246 96.2925 333.934 96.3629 330.794 96.3629C327.201 96.3629 325.04 96.2573 324.312 96.046C323.583 95.8348 323.219 95.2891 323.219 94.4089C323.219 90.5362 323.344 84.6919 323.596 76.8761C323.872 69.0603 324.01 63.1984 324.01 59.2905C324.01 44.3981 323.772 32.78 323.294 24.436L323.256 23.6967C323.231 23.0982 323.621 22.6933 324.425 22.4821C325.254 22.2708 329.098 22.0596 335.957 21.8483C340.605 21.7075 344.311 21.6371 347.074 21.6371C352.803 21.6371 357.476 23.4502 361.094 27.0765C365.189 31.1605 367.237 37.0575 367.237 44.7678C367.237 49.9079 366.709 54.0095 365.654 57.0724C364.599 60.1354 362.652 63.1104 359.813 65.9973C359.235 66.5606 358.946 67.0887 358.946 67.5816C358.946 67.5464 360.478 71.9648 363.544 80.8368C366.609 89.7089 368.141 94.6026 368.141 95.5179ZM352.313 48.1476C352.313 43.8524 351.308 40.8775 349.298 39.2227C347.74 37.9553 345.303 37.3216 341.987 37.3216C339.6 37.3216 338.331 37.8321 338.18 38.8531C338.03 40.0501 337.954 43.5003 337.954 49.2038C337.954 50.0135 337.967 51.2106 337.992 52.7949C338.017 54.3791 338.03 55.5586 338.03 56.3331C338.03 56.5091 338.432 56.6852 339.236 56.8612C340.768 57.1781 342.376 57.3365 344.06 57.3365C349.562 57.3365 352.313 54.2735 352.313 48.1476Z" fill="#023264"/>
<path d="M424.784 59.0792C424.784 70.0636 422.284 79.2701 417.285 86.6987C412.184 94.2329 405.727 98 397.914 98C390.15 98 383.706 94.1977 378.581 86.5931C373.556 79.1645 371.043 69.9932 371.043 59.0792C371.043 48.13 373.556 38.9235 378.581 31.4597C383.706 23.8199 390.15 20 397.914 20C405.627 20 412.059 23.8199 417.209 31.4597C422.259 38.9939 424.784 48.2004 424.784 59.0792ZM410.501 58.9736C410.501 53.6926 409.358 49.2038 407.072 45.5071C404.685 41.6344 401.632 39.698 397.914 39.698C394.371 39.698 391.369 41.7048 388.907 45.7183C386.52 49.5911 385.326 54.0447 385.326 59.0792C385.326 64.4658 386.444 68.9546 388.681 72.5457C391.042 76.3128 394.12 78.1963 397.914 78.1963C401.456 78.1963 404.471 76.2072 406.959 72.2288C409.32 68.4265 410.501 64.0081 410.501 58.9736Z" fill="#023264"/>
<path d="M479.995 94.3561C480.046 95.3067 479.694 95.782 478.94 95.782C478.463 95.782 477.081 95.3947 474.795 94.6202C472.533 93.8456 471.139 93.3175 470.611 93.0359C465.36 95.9228 460.323 97.3663 455.499 97.3663C447.736 97.3663 441.366 93.74 436.392 86.4875C431.467 79.3406 429.005 70.3101 429.005 59.3961C429.005 48.2356 431.392 38.9763 436.166 31.6181C441.09 24.0135 447.484 20.2112 455.348 20.2112C459.167 20.2112 462.76 21.2322 466.127 23.2742C469.77 25.5274 472.634 28.696 474.719 32.78C475.146 33.6249 475.36 34.2234 475.36 34.5755C475.36 35.7021 474.229 38.237 471.968 42.1801C469.732 46.088 468.287 48.042 467.634 48.042C467.483 48.042 466.905 47.3202 465.9 45.8768C464.669 44.1517 463.413 42.8138 462.132 41.8632C460.222 40.4198 458.112 39.698 455.8 39.698C452.032 39.698 449.042 41.6696 446.831 45.6127C444.771 49.239 443.741 53.763 443.741 59.1848C443.741 64.9235 444.809 69.4651 446.944 72.8097C449.155 76.26 452.283 77.9851 456.328 77.9851C458.891 77.9851 461.755 77.0873 464.921 75.2918C464.845 74.13 464.619 71.1726 464.242 66.4198C463.916 62.7583 463.752 59.8009 463.752 57.5477C463.752 56.8788 463.916 56.4739 464.242 56.3331C464.368 56.2627 464.569 56.2275 464.845 56.2275C465.574 56.2275 466.667 56.3331 468.124 56.5443C469.606 56.7204 470.724 56.8084 471.478 56.8084C472.282 56.8084 473.488 56.738 475.096 56.5972C476.704 56.4211 477.91 56.3331 478.714 56.3331C479.342 56.3331 479.656 56.914 479.656 58.0758C479.656 59.7657 479.581 62.3182 479.43 65.7332C479.304 69.1483 479.242 71.7007 479.242 73.3907C479.242 77.9323 479.48 84.7271 479.958 93.7752L479.995 94.3561Z" fill="#023264"/>
<rect x="483.5" y="1.5" width="29" height="29" rx="14.5" stroke="#023264" stroke-width="3"/>
<path d="M493.037 23C492.559 23 492.319 22.7437 492.319 22.231V9.06494C492.319 8.55225 492.559 8.2959 493.037 8.2959H497.785C499.897 8.2959 501.438 8.62402 502.409 9.28027C503.38 9.92969 503.865 10.9893 503.865 12.459C503.865 13.5527 503.472 14.4243 502.686 15.0737C501.9 15.7231 500.902 16.1538 499.692 16.3657V16.3862C500.348 16.6323 500.844 16.9741 501.179 17.4116C501.514 17.8491 501.787 18.2319 501.999 18.5601L504.255 22.1182C504.631 22.7061 504.501 23 503.865 23H502.081C501.705 23 501.397 22.7983 501.158 22.395L499.087 18.9395C498.861 18.5703 498.448 18.167 497.846 17.7295C497.251 17.2852 496.66 17.063 496.072 17.063H495.313V22.231C495.313 22.7437 495.074 23 494.596 23H493.037ZM495.313 14.52H497.149C498.516 14.52 499.487 14.3662 500.061 14.0586C500.642 13.7441 500.933 13.2485 500.933 12.5718C500.933 11.8335 500.652 11.355 500.092 11.1362C499.538 10.9106 498.721 10.7979 497.641 10.7979H495.313V14.52Z" fill="#023264"/>
</svg>
